<svg width="50" height="50" viewBox="0 0 50 50" fill="none" xmlns="http://www.w3.org/2000/svg">
<path d="M0.19043 0H44.0005C47.3142 0 50.0005 2.68629 50.0005 6V44C50.0005 47.3137 47.3142 50 44.0005 50H0.19043V0Z" fill="#F5C34B"/>
<path d="M22.2214 16.6094C18.1048 16.6094 14.7515 19.9755 14.7515 24.1078C14.7515 28.24 18.1048 31.6127 22.2214 31.6127C23.9797 31.6127 25.5968 30.9941 26.8748 29.9671L29.9863 33.0889C30.1434 33.24 30.3531 33.3233 30.5706 33.3211C30.7881 33.3189 30.9961 33.2312 31.15 33.0769C31.3039 32.9227 31.3915 32.714 31.394 32.4957C31.3966 32.2774 31.3138 32.0667 31.1635 31.9089L28.052 28.7856C29.0759 27.5006 29.6929 25.8748 29.6929 24.1078C29.6929 19.9755 26.3379 16.6094 22.2214 16.6094ZM22.2214 18.2761C25.4406 18.2761 28.0309 20.8762 28.0309 24.1078C28.0309 27.3393 25.4406 29.946 22.2214 29.946C19.0021 29.946 16.4118 27.3393 16.4118 24.1078C16.4118 20.8762 19.0021 18.2761 22.2214 18.2761Z" fill="#443297"/>
</svg>
